<svg width="126" height="22" viewBox="0 0 126 22" fill="none" xmlns="http://www.w3.org/2000/svg">
<path d="M3.96882 7.65688L6.51592 6.18162L5.09417 3.70987H18.4653L11.7819 15.3395L10.3602 12.8635L7.81309 14.3431L11.7819 21.245L23.5595 0.755005H0L3.96882 7.65688Z" fill="url(#paint0_linear_1_80)"/>
<path d="M39.7676 17L39.2051 14.8594H35.4941L34.916 17H31.5254L35.252 5.53125H39.3691L43.1426 17H39.7676ZM38.5645 12.3281L38.0723 10.4531C38.0202 10.25 37.9447 9.96094 37.8457 9.58594C37.7467 9.20573 37.6478 8.8151 37.5488 8.41406C37.4551 8.00781 37.3822 7.67448 37.3301 7.41406C37.2832 7.67448 37.2155 7.9974 37.127 8.38281C37.0436 8.76302 36.9551 9.14062 36.8613 9.51562C36.7728 9.89062 36.6947 10.2031 36.627 10.4531L36.1348 12.3281H38.5645ZM48.2363 17.1562C47.3405 17.1562 46.5618 16.9974 45.9004 16.6797C45.2389 16.3568 44.7259 15.862 44.3613 15.1953C44.002 14.5234 43.8223 13.6641 43.8223 12.6172C43.8223 11.5443 44.0228 10.6667 44.4238 9.98438C44.8301 9.30208 45.3848 8.79948 46.0879 8.47656C46.791 8.15365 47.5879 7.99219 48.4785 7.99219C49.0202 7.99219 49.5332 8.05208 50.0176 8.17188C50.5072 8.29167 50.9603 8.45573 51.377 8.66406L50.4785 10.9219C50.1139 10.7604 49.7728 10.6328 49.4551 10.5391C49.1426 10.4401 48.8171 10.3906 48.4785 10.3906C48.1712 10.3906 47.9004 10.4714 47.666 10.6328C47.4316 10.7943 47.2493 11.0391 47.1191 11.3672C46.9889 11.6901 46.9238 12.1016 46.9238 12.6016C46.9238 13.112 46.9889 13.5234 47.1191 13.8359C47.2546 14.1484 47.4395 14.375 47.6738 14.5156C47.9134 14.6562 48.1868 14.7266 48.4941 14.7266C48.9368 14.7266 49.377 14.6589 49.8145 14.5234C50.2572 14.3828 50.6764 14.1901 51.0723 13.9453V16.375C50.7077 16.6146 50.2962 16.8047 49.8379 16.9453C49.3796 17.0859 48.8457 17.1562 48.2363 17.1562ZM63.6348 7.99219C64.6452 7.99219 65.416 8.25 65.9473 8.76562C66.4837 9.28125 66.752 10.1068 66.752 11.2422V17H63.6973V12.1875C63.6973 11.5156 63.6061 11.0495 63.4238 10.7891C63.2467 10.5234 62.9811 10.3906 62.627 10.3906C62.1322 10.3906 61.7884 10.6068 61.5957 11.0391C61.4082 11.4714 61.3145 12.0833 61.3145 12.875V17H58.252V12.1875C58.252 11.7604 58.2129 11.4167 58.1348 11.1562C58.0618 10.8906 57.9499 10.6979 57.7988 10.5781C57.6478 10.4531 57.4577 10.3906 57.2285 10.3906C56.8796 10.3906 56.6061 10.4974 56.4082 10.7109C56.2155 10.9193 56.0801 11.2266 56.002 11.6328C55.9238 12.0391 55.8848 12.5365 55.8848 13.125V17H52.8301V8.14844H55.1348L55.5801 9.24219H55.666C55.8223 9.0026 56.0228 8.78906 56.2676 8.60156C56.5176 8.41406 56.8118 8.26562 57.1504 8.15625C57.4941 8.04688 57.8848 7.99219 58.3223 7.99219C58.9733 7.99219 59.5098 8.10156 59.9316 8.32031C60.3535 8.53906 60.6973 8.84115 60.9629 9.22656H61.0566C61.3379 8.83073 61.6999 8.52604 62.1426 8.3125C62.5853 8.09896 63.0827 7.99219 63.6348 7.99219ZM72.8145 7.99219C73.6738 7.99219 74.416 8.14323 75.041 8.44531C75.666 8.74219 76.1478 9.1901 76.4863 9.78906C76.8249 10.388 76.9941 11.138 76.9941 12.0391V13.3984H71.5332C71.5592 13.862 71.7311 14.2422 72.0488 14.5391C72.3717 14.8359 72.8457 14.9844 73.4707 14.9844C74.0228 14.9844 74.528 14.9297 74.9863 14.8203C75.4499 14.7109 75.9264 14.5417 76.416 14.3125V16.5078C75.9889 16.7318 75.5228 16.8958 75.0176 17C74.5124 17.1042 73.8743 17.1562 73.1035 17.1562C72.2129 17.1562 71.416 16.9974 70.7129 16.6797C70.0098 16.362 69.4551 15.8698 69.0488 15.2031C68.6478 14.5365 68.4473 13.6797 68.4473 12.6328C68.4473 11.5703 68.6296 10.6979 68.9941 10.0156C69.3587 9.32812 69.8691 8.82031 70.5254 8.49219C71.1816 8.15885 71.9447 7.99219 72.8145 7.99219ZM72.9238 10.0703C72.5645 10.0703 72.2624 10.1849 72.0176 10.4141C71.778 10.638 71.6374 10.9922 71.5957 11.4766H74.2207C74.2155 11.2161 74.1634 10.9792 74.0645 10.7656C73.9655 10.5521 73.8197 10.3828 73.627 10.2578C73.4395 10.1328 73.2051 10.0703 72.9238 10.0703ZM83.4863 10.3125H88.416V16.4688C87.8275 16.6719 87.153 16.8385 86.3926 16.9688C85.6322 17.0938 84.8353 17.1562 84.002 17.1562C82.903 17.1562 81.9395 16.9427 81.1113 16.5156C80.2832 16.0885 79.6374 15.4401 79.1738 14.5703C78.7103 13.6953 78.4785 12.5911 78.4785 11.2578C78.4785 10.0599 78.7077 9.02604 79.166 8.15625C79.6243 7.28125 80.2988 6.60677 81.1895 6.13281C82.0853 5.65365 83.1816 5.41406 84.4785 5.41406C85.1921 5.41406 85.8691 5.48177 86.5098 5.61719C87.1504 5.7526 87.7077 5.92448 88.1816 6.13281L87.2051 8.55469C86.7936 8.35156 86.3665 8.20052 85.9238 8.10156C85.4811 7.9974 85.0046 7.94531 84.4941 7.94531C83.8118 7.94531 83.2624 8.09896 82.8457 8.40625C82.4342 8.71354 82.1348 9.125 81.9473 9.64062C81.7598 10.151 81.666 10.7161 81.666 11.3359C81.666 12.0443 81.765 12.6432 81.9629 13.1328C82.166 13.6172 82.4603 13.987 82.8457 14.2422C83.2363 14.4922 83.7077 14.6172 84.2598 14.6172C84.4421 14.6172 84.6634 14.6042 84.9238 14.5781C85.1895 14.5521 85.39 14.5208 85.5254 14.4844V12.6953H83.4863V10.3125ZM94.8848 7.99219C96.0046 7.99219 96.8796 8.27083 97.5098 8.82812C98.14 9.38021 98.4551 10.1693 98.4551 11.1953V17H96.3379L95.752 15.8281H95.6895C95.4395 16.1406 95.1816 16.3958 94.916 16.5938C94.6556 16.7865 94.3561 16.9271 94.0176 17.0156C93.679 17.1094 93.265 17.1562 92.7754 17.1562C92.265 17.1562 91.8066 17.0521 91.4004 16.8438C90.9941 16.6354 90.6738 16.3203 90.4395 15.8984C90.2051 15.4766 90.0879 14.9427 90.0879 14.2969C90.0879 13.349 90.416 12.6458 91.0723 12.1875C91.7285 11.7292 92.679 11.4714 93.9238 11.4141L95.4004 11.3672V11.2422C95.4004 10.8464 95.3014 10.5651 95.1035 10.3984C94.9108 10.2318 94.6504 10.1484 94.3223 10.1484C93.9733 10.1484 93.5827 10.2109 93.1504 10.3359C92.7233 10.4557 92.2936 10.612 91.8613 10.8047L90.9785 8.78906C91.4889 8.52865 92.0671 8.33073 92.7129 8.19531C93.3587 8.0599 94.0827 7.99219 94.8848 7.99219ZM95.416 13.0469L94.7129 13.0781C94.1504 13.099 93.7546 13.1979 93.5254 13.375C93.3014 13.5469 93.1895 13.7943 93.1895 14.1172C93.1895 14.4193 93.2702 14.6432 93.4316 14.7891C93.5931 14.9297 93.8066 15 94.0723 15C94.4421 15 94.7572 14.8828 95.0176 14.6484C95.2832 14.4141 95.416 14.1094 95.416 13.7344V13.0469ZM111.338 7.99219C112.348 7.99219 113.119 8.25 113.65 8.76562C114.187 9.28125 114.455 10.1068 114.455 11.2422V17H111.4V12.1875C111.4 11.5156 111.309 11.0495 111.127 10.7891C110.95 10.5234 110.684 10.3906 110.33 10.3906C109.835 10.3906 109.492 10.6068 109.299 11.0391C109.111 11.4714 109.018 12.0833 109.018 12.875V17H105.955V12.1875C105.955 11.7604 105.916 11.4167 105.838 11.1562C105.765 10.8906 105.653 10.6979 105.502 10.5781C105.351 10.4531 105.161 10.3906 104.932 10.3906C104.583 10.3906 104.309 10.4974 104.111 10.7109C103.919 10.9193 103.783 11.2266 103.705 11.6328C103.627 12.0391 103.588 12.5365 103.588 13.125V17H100.533V8.14844H102.838L103.283 9.24219H103.369C103.525 9.0026 103.726 8.78906 103.971 8.60156C104.221 8.41406 104.515 8.26562 104.854 8.15625C105.197 8.04688 105.588 7.99219 106.025 7.99219C106.676 7.99219 107.213 8.10156 107.635 8.32031C108.057 8.53906 108.4 8.84115 108.666 9.22656H108.76C109.041 8.83073 109.403 8.52604 109.846 8.3125C110.288 8.09896 110.786 7.99219 111.338 7.99219ZM120.518 7.99219C121.377 7.99219 122.119 8.14323 122.744 8.44531C123.369 8.74219 123.851 9.1901 124.189 9.78906C124.528 10.388 124.697 11.138 124.697 12.0391V13.3984H119.236C119.262 13.862 119.434 14.2422 119.752 14.5391C120.075 14.8359 120.549 14.9844 121.174 14.9844C121.726 14.9844 122.231 14.9297 122.689 14.8203C123.153 14.7109 123.63 14.5417 124.119 14.3125V16.5078C123.692 16.7318 123.226 16.8958 122.721 17C122.215 17.1042 121.577 17.1562 120.807 17.1562C119.916 17.1562 119.119 16.9974 118.416 16.6797C117.713 16.362 117.158 15.8698 116.752 15.2031C116.351 14.5365 116.15 13.6797 116.15 12.6328C116.15 11.5703 116.333 10.6979 116.697 10.0156C117.062 9.32812 117.572 8.82031 118.229 8.49219C118.885 8.15885 119.648 7.99219 120.518 7.99219ZM120.627 10.0703C120.268 10.0703 119.965 10.1849 119.721 10.4141C119.481 10.638 119.34 10.9922 119.299 11.4766H121.924C121.919 11.2161 121.867 10.9792 121.768 10.7656C121.669 10.5521 121.523 10.3828 121.33 10.2578C121.143 10.1328 120.908 10.0703 120.627 10.0703Z" fill="url(#paint1_linear_1_80)"/>
<defs>
<linearGradient id="paint0_linear_1_80" x1="29.3085" y1="4.15125" x2="-10.6305" y2="7.35839" gradientUnits="userSpaceOnUse">
<stop offset="0.100157" stop-color="#059669"/>
<stop offset="0.707994" stop-color="#00D090"/>
</linearGradient>
<linearGradient id="paint1_linear_1_80" x1="104.342" y1="20.3333" x2="14.0991" y2="7.60709" gradientUnits="userSpaceOnUse">
<stop stop-color="#059669"/>
<stop offset="1" stop-color="#00D995"/>
</linearGradient>
</defs>
</svg>
